<mxfile host="app.diagrams.net" modified="2020-12-01T01:34:15.007Z" agent="5.0 (Windows NT 10.0; Win64; x64) AppleWebKit/537.36 (KHTML, like Gecko) Chrome/87.0.4280.66 Safari/537.36" etag="xK_1WgqMYhlHpM_g2puA" version="13.10.4" type="github">
  <diagram id="E8z1k-vm5E1WFmw-MKpO" name="Page-1">
    <mxGraphModel dx="942" dy="643" grid="1" gridSize="10" guides="1" tooltips="1" connect="1" arrows="1" fold="1" page="1" pageScale="1" pageWidth="827" pageHeight="1169" background="#F4F1DE" math="0" shadow="0">
      <root>
        <mxCell id="0" />
        <mxCell id="1" parent="0" />
        <mxCell id="dUvSYYcUi-CKXWrl7Qq8-7" value="" style="edgeStyle=orthogonalEdgeStyle;rounded=0;orthogonalLoop=1;jettySize=auto;html=1;labelBackgroundColor=#F4F1DE;strokeColor=#E07A5F;fontColor=#393C56;" parent="1" source="dUvSYYcUi-CKXWrl7Qq8-1" target="dUvSYYcUi-CKXWrl7Qq8-6" edge="1">
          <mxGeometry relative="1" as="geometry" />
        </mxCell>
        <mxCell id="dUvSYYcUi-CKXWrl7Qq8-1" value="&lt;b&gt;&lt;font style=&quot;font-size: 16px&quot;&gt;nginx&lt;/font&gt;&lt;/b&gt;" style="rounded=0;whiteSpace=wrap;html=1;align=center;fillColor=#F2CC8F;strokeColor=#E07A5F;fontColor=#393C56;" parent="1" vertex="1">
          <mxGeometry x="100" y="125" width="130" height="70" as="geometry" />
        </mxCell>
        <mxCell id="dUvSYYcUi-CKXWrl7Qq8-4" value="&lt;font size=&quot;1&quot;&gt;&lt;b style=&quot;font-size: 20px&quot;&gt;10.6.3.254&lt;/b&gt;&lt;/font&gt;" style="text;html=1;align=center;verticalAlign=middle;resizable=0;points=[];autosize=1;fontColor=#393C56;" parent="1" vertex="1">
          <mxGeometry x="105" y="205" width="110" height="20" as="geometry" />
        </mxCell>
        <mxCell id="dUvSYYcUi-CKXWrl7Qq8-10" value="" style="edgeStyle=orthogonalEdgeStyle;rounded=0;orthogonalLoop=1;jettySize=auto;html=1;labelBackgroundColor=#F4F1DE;strokeColor=#E07A5F;fontColor=#393C56;" parent="1" source="dUvSYYcUi-CKXWrl7Qq8-6" target="dUvSYYcUi-CKXWrl7Qq8-9" edge="1">
          <mxGeometry relative="1" as="geometry" />
        </mxCell>
        <mxCell id="dUvSYYcUi-CKXWrl7Qq8-6" value="&lt;b style=&quot;font-size: 14px&quot;&gt;&lt;br&gt;nginx反向代理服务器&lt;/b&gt;" style="whiteSpace=wrap;html=1;rounded=0;fillColor=#F2CC8F;strokeColor=#E07A5F;fontColor=#393C56;" parent="1" vertex="1">
          <mxGeometry x="315" y="125" width="135" height="70" as="geometry" />
        </mxCell>
        <mxCell id="dUvSYYcUi-CKXWrl7Qq8-8" value="&lt;b&gt;&lt;font style=&quot;font-size: 18px&quot;&gt;10.6.3.11&lt;/font&gt;&lt;/b&gt;" style="text;html=1;align=center;verticalAlign=middle;resizable=0;points=[];autosize=1;fontColor=#393C56;" parent="1" vertex="1">
          <mxGeometry x="337.5" y="215" width="90" height="20" as="geometry" />
        </mxCell>
        <mxCell id="dUvSYYcUi-CKXWrl7Qq8-12" value="" style="edgeStyle=orthogonalEdgeStyle;rounded=0;orthogonalLoop=1;jettySize=auto;html=1;labelBackgroundColor=#F4F1DE;strokeColor=#E07A5F;fontColor=#393C56;" parent="1" source="dUvSYYcUi-CKXWrl7Qq8-9" target="dUvSYYcUi-CKXWrl7Qq8-11" edge="1">
          <mxGeometry relative="1" as="geometry" />
        </mxCell>
        <mxCell id="dUvSYYcUi-CKXWrl7Qq8-9" value="&lt;b&gt;&lt;font style=&quot;font-size: 18px&quot;&gt;IIS服务器&lt;/font&gt;&lt;/b&gt;&lt;br&gt;&lt;b&gt;&lt;font color=&quot;#ff3333&quot;&gt;中文站点和英文站点&lt;/font&gt;&lt;/b&gt;&amp;nbsp;" style="ellipse;whiteSpace=wrap;html=1;rounded=0;fillColor=#F2CC8F;strokeColor=#E07A5F;fontColor=#393C56;" parent="1" vertex="1">
          <mxGeometry x="550" y="120" width="120" height="80" as="geometry" />
        </mxCell>
        <mxCell id="dUvSYYcUi-CKXWrl7Qq8-11" value="&lt;b&gt;&lt;font style=&quot;font-size: 16px&quot;&gt;数据库服务器&lt;/font&gt;&lt;/b&gt;" style="ellipse;whiteSpace=wrap;html=1;rounded=0;fillColor=#F2CC8F;strokeColor=#E07A5F;fontColor=#393C56;" parent="1" vertex="1">
          <mxGeometry x="550" y="295" width="120" height="80" as="geometry" />
        </mxCell>
        <mxCell id="dUvSYYcUi-CKXWrl7Qq8-13" value="&lt;b&gt;&lt;font style=&quot;font-size: 18px&quot;&gt;10.6.3.12&lt;/font&gt;&lt;/b&gt;" style="text;html=1;align=center;verticalAlign=middle;resizable=0;points=[];autosize=1;fontColor=#393C56;" parent="1" vertex="1">
          <mxGeometry x="610" y="215" width="90" height="20" as="geometry" />
        </mxCell>
        <mxCell id="dUvSYYcUi-CKXWrl7Qq8-14" value="&lt;b&gt;&lt;font style=&quot;font-size: 18px&quot;&gt;172.16.3.26&lt;/font&gt;&lt;/b&gt;" style="text;html=1;align=center;verticalAlign=middle;resizable=0;points=[];autosize=1;fontColor=#393C56;" parent="1" vertex="1">
          <mxGeometry x="590" y="375" width="110" height="20" as="geometry" />
        </mxCell>
        <mxCell id="dUvSYYcUi-CKXWrl7Qq8-16" value="&lt;b&gt;&lt;font style=&quot;font-size: 16px&quot; color=&quot;#6666ff&quot;&gt;系统：Linux Centos6.5&lt;/font&gt;&lt;/b&gt;" style="text;html=1;align=center;verticalAlign=middle;resizable=0;points=[];autosize=1;fontColor=#393C56;" parent="1" vertex="1">
          <mxGeometry x="285" y="245" width="190" height="20" as="geometry" />
        </mxCell>
        <mxCell id="dUvSYYcUi-CKXWrl7Qq8-17" value="&lt;b style=&quot;font-size: 16px&quot;&gt;&lt;font color=&quot;#6666ff&quot;&gt;系统:Windows server 2012 R2&lt;br&gt;数据库版本：sql server 2008&lt;/font&gt;&lt;/b&gt;" style="text;html=1;align=left;verticalAlign=middle;resizable=0;points=[];autosize=1;fontColor=#393C56;" parent="1" vertex="1">
          <mxGeometry x="560" y="400" width="240" height="40" as="geometry" />
        </mxCell>
        <mxCell id="dUvSYYcUi-CKXWrl7Qq8-18" value="&lt;b&gt;&lt;font style=&quot;font-size: 16px&quot; color=&quot;#6666ff&quot;&gt;系统：windows server 2012&lt;/font&gt;&lt;/b&gt;" style="text;html=1;align=center;verticalAlign=middle;resizable=0;points=[];autosize=1;fontColor=#393C56;" parent="1" vertex="1">
          <mxGeometry x="610" y="245" width="220" height="20" as="geometry" />
        </mxCell>
        <mxCell id="dUvSYYcUi-CKXWrl7Qq8-19" value="&lt;b&gt;&lt;font style=&quot;font-size: 22px&quot;&gt;湖南肿瘤医院拓扑图&lt;/font&gt;&lt;/b&gt;" style="text;html=1;align=center;verticalAlign=middle;resizable=0;points=[];autosize=1;fontColor=#393C56;" parent="1" vertex="1">
          <mxGeometry x="285" y="20" width="210" height="20" as="geometry" />
        </mxCell>
      </root>
    </mxGraphModel>
  </diagram>
</mxfile>
